<svg width="48" height="48" viewBox="0 0 48 48" fill="none" xmlns="http://www.w3.org/2000/svg">
<path fill-rule="evenodd" clip-rule="evenodd" d="M24 0C10.7625 0 0 10.7625 0 24C0 37.2375 10.7625 48 24 48C37.2375 48 48 37.2375 48 24C48 10.7625 37.2375 0 24 0Z" fill="#4BAE4F"/>
<path fill-rule="evenodd" clip-rule="evenodd" d="M35.6062 15.9093C36.1875 16.4905 36.1875 17.4468 35.6062 18.028L21.5437 32.0905C21.2531 32.3812 20.8687 32.5312 20.4843 32.5312C20.1 32.5312 19.7156 32.3812 19.425 32.0905L12.3937 25.0593C11.8125 24.478 11.8125 23.5218 12.3937 22.9405C12.975 22.3593 13.9312 22.3593 14.5125 22.9405L20.4843 28.9124L33.4875 15.9093C34.0687 15.3187 35.025 15.3187 35.6062 15.9093Z" fill="white"/>
</svg>
